<?xml version="1.0" encoding="UTF-8"?>
<svg id="Layer_2" data-name="Layer 2" xmlns="http://www.w3.org/2000/svg" viewBox="0 0 187.49 148.64">
  <defs>
    <style>
      .cls-1 {
        fill: #fff;
        font-family: Kollektif-Bold, Kollektif;
        font-size: 18.91px;
        font-weight: 700;
      }

      .cls-2 {
        fill: #231f20;
        stroke-width: 0px;
      }
    </style>
  </defs>
  <g id="Layer_1-2" data-name="Layer 1">
    <g>
      <g>
        <path class="cls-2" d="m61.11,35.9h22.88v56.07c0,4.37-1.11,8.58-3.32,12.62-2.21,4.04-5.23,7.59-9.05,10.64-3.82,3.05-8.27,5.49-13.34,7.3-5.08,1.81-10.53,2.72-16.36,2.72s-11.16-.91-16.29-2.72c-5.13-1.81-9.57-4.25-13.34-7.3-3.77-3.05-6.76-6.6-8.97-10.64-2.21-4.04-3.32-8.25-3.32-12.62v-56.07h22.88v52.35c0,2.48.5,4.81,1.5,6.99,1,2.19,2.35,4.13,4.05,5.82,1.7,1.69,3.72,3.03,6.07,4.02s4.82,1.49,7.42,1.49,5.2-.5,7.49-1.49c2.3-.99,4.32-2.33,6.07-4.02,1.75-1.69,3.12-3.63,4.12-5.82,1-2.19,1.5-4.52,1.5-6.99v-52.35Z"/>
        <path class="cls-2" d="m133.76,73.31l53.73,75.33h-22.38l-42.67-58.48-20.17,30.12h-22.5l31.48-46.97L60.53,0h22.38l39.54,56.59,15.74-23.48h22.5l-26.93,40.21Z"/>
      </g>
      <text class="cls-1" transform="translate(101.58 54.11) rotate(53.89)"><tspan x="0" y="0">Copenhagen</tspan></text>
    </g>
  </g>
</svg>